<?xml version="1.0" encoding="utf-8"?>
<!-- Svg Vector Icons : http://www.onlinewebfonts.com/icon -->
<!DOCTYPE svg PUBLIC "-//W3C//DTD SVG 1.1//EN" "http://www.w3.org/Graphics/SVG/1.1/DTD/svg11.dtd">
<svg version="1.1" xmlns="http://www.w3.org/2000/svg" xmlns:xlink="http://www.w3.org/1999/xlink" x="0px" y="0px" viewBox="0 0 256 256" enable-background="new 0 0 256 256" xml:space="preserve">
<metadata> Svg Vector Icons : http://www.onlinewebfonts.com/icon </metadata>
<g><g><path fill="#000000" d="M242,221.9l-62.2-62.2c27-36.7,23.9-88.9-9.3-122.1c-36.7-36.6-96.3-37.2-133,0c-36.7,36.6-36.7,96.3,0,132.9c33.2,33.2,85.4,36.3,122.2,9.3l62.2,62.2c5.3,5.3,14.2,5.3,20.1,0C247.3,236.7,247.3,227.3,242,221.9z M57.6,151.6c-25.4-25.4-25.4-67.3,0-92.7c25.4-25.4,67.4-25.4,92.8,0c25.4,25.4,25.4,66.8,0,92.7C125,177.1,83,177.1,57.6,151.6z"/></g></g>
</svg>